<svg xmlns="http://www.w3.org/2000/svg" viewBox="0 0 331 324.53"><defs><style>.a{fill:#1b1b1c;}.b{fill:#00eb32;}</style></defs><title>Asset 1</title><path class="a" d="M165.41,324.5q-77.82,0-155.64,0a23.4,23.4,0,0,1-5-.19H4.63c-2.76-.6-4-1.76-4.42-5a47.74,47.74,0,0,1-.19-6q0-73,0-145.92,0-77,0-154c0-2,0-3.92,0-5.88A17.74,17.74,0,0,1,.44,4,5.12,5.12,0,0,1,4.86.21,64.74,64.74,0,0,1,11.68,0H229.84Q276,0,322.12,0a18.56,18.56,0,0,1,5.68.66,3.67,3.67,0,0,1,2.34,2.07,7.46,7.46,0,0,1,.61,2.78c.45,13.2.14,26.39.17,39.59q.09,43.83,0,87.68V241.28q0,37,0,74a32.17,32.17,0,0,1-.23,4.9,4.52,4.52,0,0,1-3.48,3.89,31.85,31.85,0,0,1-5.23.4H165.41ZM253,126a114.66,114.66,0,0,1-.44,12.43c-.32,2.9-.83,5.76-1.43,8.6a91,91,0,0,1-2.46,8.87c-.49,1.52-.93,3.05-1.48,4.55-.87,2.41-2.12,4.65-3,7a14.93,14.93,0,0,1-1.69,3.42,13.27,13.27,0,0,0-1.62,2.91,32,32,0,0,1-3,5.94c-1.63,2.55-2.72,5.42-4.62,7.83-.59.74-.95,1.65-1.53,2.42-1.44,1.91-2.89,3.81-4.26,5.77A133.72,133.72,0,0,1,215.72,210c-1.64,1.76-3.38,3.4-5,5.18-2.27,2.51-4.67,4.91-7.06,7.31a76.72,76.72,0,0,1-5.93,5.76c-.72.59-1.17,1.42-1.84,2.05a35.64,35.64,0,0,0-2.61,2.45c-1.24,1.41-2.61,2.69-4,4a82.31,82.31,0,0,0-7.35,7.71,4.24,4.24,0,0,1-1.14,1.06,11.71,11.71,0,0,0-3.16,2.91,53.13,53.13,0,0,1-5.45,5.16c-1.07,1-2.06,2-3.19,2.87-1.62,1.29-3.07,2.79-4.65,4.12-2.51,2.08-5,4.16-7.54,6.22s-5,4-7.59,5.82c-1.68,1.2-3.46,2.27-5.08,3.59a17.22,17.22,0,0,1-3,2.1,15.18,15.18,0,0,0-3.14,2.46,24.52,24.52,0,0,0-2.43,2.36c-1.39,1.58-1.91,4.24-.51,5.89.39.45.66,1,1.05,1.45a5.05,5.05,0,0,0,2.73,2.05A7.64,7.64,0,0,0,144,291.4a31.2,31.2,0,0,0,3.85-2.73c1.16-.92,2.57-1.44,3.67-2.44a15.85,15.85,0,0,1,1.9-1.59,15.6,15.6,0,0,0,3.73-3.08,1.63,1.63,0,0,1,.49-.52c1.87-.94,3.14-2.65,4.88-3.8a20.44,20.44,0,0,0,3.78-3.06,10.58,10.58,0,0,1,1.41-1.27c1-.77,1.85-1.71,2.93-2.39s1.92-1.86,3-2.69a16.9,16.9,0,0,0,3.65-3.16,1,1,0,0,1,.26-.24c1.86-1.12,3.14-2.91,4.88-4.17s3.11-2.72,4.79-3.94a18.44,18.44,0,0,0,2.35-2,18,18,0,0,1,2.9-2.81,6.52,6.52,0,0,0,1.42-1.45,12,12,0,0,1,2.29-2.26,10.92,10.92,0,0,0,2.2-2.2,6.27,6.27,0,0,1,1.27-1.25,13.06,13.06,0,0,0,3-2.89,11.14,11.14,0,0,1,1.61-1.61c2.2-1.9,4.13-4.09,6.21-6.11a33.69,33.69,0,0,1,2.88-2.85,3.61,3.61,0,0,0,.86-.84,18.53,18.53,0,0,1,3.51-3.73,2.08,2.08,0,0,0,.41-.43,45.69,45.69,0,0,1,3.56-4c1.36-1.57,2.68-3.17,4.17-4.62l.07-.09c2.45-3,4.93-6.06,7.25-9.2a23.24,23.24,0,0,0,1.83-2.36,12.9,12.9,0,0,1,2.29-2.91,8.07,8.07,0,0,0,1.37-1.81,14.34,14.34,0,0,1,1.23-1.77,32.25,32.25,0,0,0,3.16-4.2c.72-1.3,1.54-2.52,2.37-3.74.34-.49.78-.92,1.07-1.44,1.9-3.37,4-6.63,5.7-10.12.61-1.25,1.18-2.53,1.86-3.75.47-.83,1-1.65,1.37-2.53.87-2,1.77-3.93,2.59-5.92a50.52,50.52,0,0,0,2.06-5.49c.95-3.42,1.75-6.88,2.51-10.34.71-3.19,1.21-6.41,1.66-9.65.24-1.66.36-3.32.54-5s.3-3.5.34-5.24a152.28,152.28,0,0,0-.61-20.81c-.3-2.58-.79-5.11-1.14-7.68s-1.38-5.07-2.05-7.62a34.38,34.38,0,0,0-1.44-4.18c-1.91-4.7-4.18-9.24-6.43-13.78a79.15,79.15,0,0,0-4.57-7.86c-1.53-2.38-3.18-4.68-4.89-6.94a57,57,0,0,0-5.92-7.05c-.54-.52-.93-1.19-1.52-1.68a37.69,37.69,0,0,1-3.15-2.76c-2.22-2.29-5-3.85-7.46-5.77a32.2,32.2,0,0,0-3.72-2.17,58.11,58.11,0,0,0-6.63-3.59c-4.08-1.7-7.92-4-12.26-5.08l-.22-.09c-1.61-.76-3.37-1.07-5-1.76-1-.41-2.07-.59-3.09-.91a22.21,22.21,0,0,0-3-.75c-3.6-.65-7.22-1.16-10.88-1.48-2.74-.24-5.48-.38-8.22-.62a49.84,49.84,0,0,0-9,.27,35.09,35.09,0,0,0-3.68.3c-1.84.35-3.7.58-5.56.8a52.31,52.31,0,0,0-6.23,1.07c-3.55.85-6.91,2.23-10.36,3.37a31.7,31.7,0,0,0-3.76,1.21c-1.88.88-3.84,1.56-5.72,2.45a8.5,8.5,0,0,0-2,.9,12.25,12.25,0,0,1-3.55,1.92,65.3,65.3,0,0,0-6.11,3,83.9,83.9,0,0,0-7.49,4.5c-2.67,1.81-5.37,3.59-8,5.5-2.19,1.6-4.4,3.18-6.45,5-2.56,2.22-5.1,4.48-7.55,6.83-2.22,2.12-4.56,4.13-6.64,6.4a26.43,26.43,0,0,0-3.2,3.87,5,5,0,0,0-.4,5.12c.35.72.76,1.41,1.17,2.09a2.86,2.86,0,0,0,2.73,1.59,7.85,7.85,0,0,0,3-.75,17.32,17.32,0,0,0,3.43-2.37,59.59,59.59,0,0,0,6.09-5.57c1.27-1.32,2.56-2.64,3.82-4,1.11-1.16,2.38-2.15,3.47-3.3,2.2-2.3,4.9-4,7.33-5.95,1.36-1.11,2.85-2,4.25-3.1A31,31,0,0,1,119,56.21a11.48,11.48,0,0,0,1.93-.94,39.65,39.65,0,0,1,3.63-2.09c1.9-1,4-1.69,5.88-2.66a80.29,80.29,0,0,1,8.71-3.35,80.12,80.12,0,0,1,10.23-2.91c3.15-.7,6.3-1.36,9.5-1.8A90.19,90.19,0,0,1,172,41.78c.83,0,1.68,0,2.51,0,2.66.27,5.3.62,7.95.89s5.5.9,8.24,1.42c2.19.41,4.31,1.12,6.46,1.73a56.29,56.29,0,0,1,10.59,4.05c1,.5,1.89,1,2.85,1.53a45.94,45.94,0,0,1,6.79,3.78c1.22.9,2.44,1.8,3.61,2.76,1.88,1.54,3.75,3.1,5.57,4.71,1.58,1.4,3.31,2.64,4.77,4.17.61.64,1.08,1.39,1.73,2,2.13,1.91,3.64,4.33,5.39,6.56,1.27,1.62,2.22,3.5,3.35,5.24a68.24,68.24,0,0,1,3.36,6.74,31,31,0,0,1,2.09,5.1c.69,2.25,1.34,4.51,2.11,6.74s1.31,4.35,1.91,6.54a44.12,44.12,0,0,1,1,6.48,68.66,68.66,0,0,1,.67,8.22Zm-59.08.13a33.72,33.72,0,0,1-.46,7.51,26.5,26.5,0,0,1-1.7,5.85,26.83,26.83,0,0,0-1,2.8,16.14,16.14,0,0,1-2,4.49,13.91,13.91,0,0,0-1.42,2.63,21.15,21.15,0,0,1-2.55,4.84c-1.7,2.36-3.27,4.81-5,7.13-1,1.29-1.9,2.66-2.91,3.94-1.52,1.9-3.13,3.72-4.72,5.56-2.07,2.38-4.25,4.66-6.4,7-1.83,1.94-3.58,4-5.6,5.73a53.73,53.73,0,0,0-4.77,4.89c-2.27,2.58-5,4.63-7.39,7.15-1.87,2-3.89,3.91-5.85,5.85-.31.31-.65.59-1,.87-1.62,1.36-3.11,2.84-4.78,4.16s-3.37,2.9-5,4.4c-.7.65-1.5,1.17-2.18,1.84-.9.88-1.93,1.62-2.85,2.47-.68.62-1.42,1.14-2.13,1.71a36.71,36.71,0,0,1-3.06,2.56c-.86.53-1.47,1.3-2.28,1.87a5.39,5.39,0,0,0-1.48,1.13,9.91,9.91,0,0,1-2.1,1.89c-1.32,1.06-2.76,2-4.07,3-1.1.91-2.34,1.66-3.47,2.54-1.59,1.21-3.09,2.53-4.71,3.69-3.83,2.73-7.67,5.46-11.41,8.31a31.23,31.23,0,0,0-4.42,4,3.25,3.25,0,0,0-.76,3.44,9.3,9.3,0,0,0,1.31,2.42c1.54,2,3.77,3,6.35,1.8A25.5,25.5,0,0,0,99.17,251c2.13-1.61,4.36-3.08,6.58-4.57.8-.55,1.35-1.39,2.18-1.87a75.53,75.53,0,0,0,6.23-4.43c1.88-1.34,3.69-2.79,5.44-4.29,1.07-.91,2.31-1.6,3.32-2.56,1.68-1.6,3.62-2.86,5.36-4.39,2.08-1.85,4.34-3.5,6.49-5.27s4.17-3.47,6.19-5.28a17.57,17.57,0,0,0,2.75-2.48,45.85,45.85,0,0,1,3.46-3.78c1.12-1.2,2.45-2.17,3.59-3.35.75-.77,1.47-1.55,2.24-2.3,3.71-3.59,7.33-7.26,11-10.92a13.09,13.09,0,0,1,1.79-1.93,7.71,7.71,0,0,0,1.74-1.63,25.65,25.65,0,0,1,2.62-2.79c2.14-2.05,4-4.33,6.12-6.42a19.89,19.89,0,0,0,1.8-2.08,58.9,58.9,0,0,1,4.68-4.93q1.78-1.84,3.37-3.84a42.92,42.92,0,0,0,3.29-4.39,5.93,5.93,0,0,1,1.59-1.77,3.46,3.46,0,0,0,1.3-1.54,16.33,16.33,0,0,1,2.44-3.64,31.48,31.48,0,0,0,3.43-5.31,29,29,0,0,1,1.58-2.82,34.63,34.63,0,0,0,2.62-5.24c.78-2.06,1.36-4.17,2-6.28a41.42,41.42,0,0,0,1.6-10.37,7.72,7.72,0,0,1,.05-1,24.45,24.45,0,0,0,.09-5.86c-.15-1.94-.17-3.9-.36-5.84a23.4,23.4,0,0,0-.74-4.35,40.35,40.35,0,0,0-3.23-8,36.76,36.76,0,0,0-9.53-10.93,28.27,28.27,0,0,0-6.05-3.39,24.12,24.12,0,0,0-8-2.22c-1.71-.14-3.43,0-5.13-.35a7.3,7.3,0,0,0-2.51,0c-1.7.27-3.42.16-5.13.36-1,.12-2.08.16-3.08.36A67.63,67.63,0,0,0,150.64,93a44.72,44.72,0,0,0-5.51,2.82,62.8,62.8,0,0,0-6.1,3.88c-1.91,1.43-3.92,2.75-5.71,4.33a31.34,31.34,0,0,0-4.07,3.47,6.22,6.22,0,0,1-.64.71c-3.69,3.43-7.12,7.12-10.59,10.77a3.57,3.57,0,0,0-.31.37c-2.13,2.84-4.63,5.38-7,8-1.64,1.84-3.26,3.73-5.08,5.41-.12.11-.22.23-.33.35a97.08,97.08,0,0,1-7.6,8.11c-2.15,2-4.38,4-6.56,6-1.17,1.08-2.31,2.21-3.5,3.27-2.27,2-4.62,3.92-6.85,6-1.9,1.77-3.89,3.44-5.91,5.06-3.89,3.11-7.84,6.15-11.69,9.31-3.05,2.5-6.23,4.86-9.42,7.18-2.55,1.86-4.87,4-7.38,5.89a5.38,5.38,0,0,0-1.91,2.42A5.68,5.68,0,0,0,45,191c1,2.08,2.08,2.53,4.37,2.05a26,26,0,0,0,6-2.55,34.89,34.89,0,0,0,5.09-3.55c2.53-1.86,5-3.86,7.61-5.57a83,83,0,0,0,7.82-5.91c2.49-2.05,5.16-3.88,7.56-6.05.65-.59,1.47-1,2-1.64a54.45,54.45,0,0,1,5.92-5c2.24-1.87,4.29-3.93,6.54-5.79,2.67-2.21,5.14-4.67,7.62-7.1q3-3,6-6.07c2.15-2.27,4.25-4.57,6.45-6.77a23.4,23.4,0,0,0,1.77-2,7.18,7.18,0,0,1,1.32-1.54,13.09,13.09,0,0,0,2.75-2.81,9.11,9.11,0,0,1,2.24-2.31,4.67,4.67,0,0,0,1.34-1.52,13.32,13.32,0,0,1,2.53-3,12,12,0,0,0,2.1-2.45,3.14,3.14,0,0,1,.89-1,13,13,0,0,0,1.86-1.68,59.63,59.63,0,0,1,7.31-6.35c.54-.41,1.13-.73,1.67-1.15a40.58,40.58,0,0,1,5.55-4,69.28,69.28,0,0,1,6.89-3.32,38.45,38.45,0,0,1,14.14-2.69,59.38,59.38,0,0,1,6.92.43,18.58,18.58,0,0,1,11.41,5.74,14.91,14.91,0,0,1,1.92,2.73,20.67,20.67,0,0,1,2.81,7.71A37.76,37.76,0,0,1,193.92,126.12ZM239.63,22.23a9.63,9.63,0,0,0-3,.56,2.89,2.89,0,0,0-2.2,3.05,16.74,16.74,0,0,0,.26,2.13,5.9,5.9,0,0,0,1.66,3.61c3.15,3.44,7.22,5.79,10.47,9.11,1.92,2,4.05,3.73,6,5.68.78.79,1.47,1.68,2.28,2.45a53.84,53.84,0,0,1,4.17,4.78,82.27,82.27,0,0,1,7,9.84,19.18,19.18,0,0,1,2.11,3.85A5.13,5.13,0,0,0,269,68.6a47.5,47.5,0,0,1,4.38,8.09c.93,2.2,2,4.34,2.79,6.61,1.17,3.48,2.29,7,3.33,10.5a49.67,49.67,0,0,1,1.36,6.18c.34,2.08.61,4.18,1,6.26.3,1.68.7,3.35,1,5,.23,1.1.27,2.22.44,3.32a65.71,65.71,0,0,1,.63,9.29c.05,3.31-.2,6.62-.39,9.92a45.24,45.24,0,0,1-1.19,8c-.64,2.71-1,5.47-1.47,8.23a61,61,0,0,1-2.3,10.25c-.67,2-1.23,4-1.88,6.06-.69,2.17-1.39,4.34-2.16,6.48a25.53,25.53,0,0,0-1,2.68,20.77,20.77,0,0,1-1.44,3.8c-.82,1.77-1.71,3.5-2.38,5.35a19.11,19.11,0,0,1-2.05,4.06,14.82,14.82,0,0,0-1.58,2.8,20.36,20.36,0,0,1-2.6,4.84,12.31,12.31,0,0,0-1.7,2.75c-.89,2.31-2.53,4.15-3.8,6.21-1.47,2.41-3.25,4.64-4.88,6.94-.51.72-.95,1.48-1.5,2.17-1.95,2.46-3.95,4.9-5.92,7.36a12.35,12.35,0,0,0-2.31,3.89,4.76,4.76,0,0,0-.14,3.5,17.24,17.24,0,0,0,2.13,3.45,2.45,2.45,0,0,0,3.17.91,9.87,9.87,0,0,0,4-2.7c1.07-1.18,2.12-2.39,3.16-3.59,1.22-1.42,2.47-2.83,3.68-4.25s2.15-3.18,3.59-4.47a4.5,4.5,0,0,0,.47-.7,23.47,23.47,0,0,1,1.5-2.44,27,27,0,0,0,3.12-4.38,25.63,25.63,0,0,1,2.55-3.9,13.85,13.85,0,0,0,1.45-2.19c.63-1.1,1-2.33,1.71-3.4a55,55,0,0,0,2.77-4.9c.8-1.48,1.41-3,2.22-4.52.46-.84.95-1.65,1.36-2.53,1-2.06,1.71-4.22,2.78-6.23a40.69,40.69,0,0,0,2.27-5.41c.68-1.87,1.15-3.84,2-5.65a57.59,57.59,0,0,0,2.84-8.87,34.36,34.36,0,0,1,1.08-3.92,34.73,34.73,0,0,0,1.73-6.45c.52-2.7,1-5.41,1.31-8.14.28-2.41.54-4.83.92-7.22.22-1.35.21-2.7.37-4.05a34.17,34.17,0,0,0,.57-6.06,3.68,3.68,0,0,1,.12-1.19,4.09,4.09,0,0,0,.06-1.67c-.31-2.49-.43-5-.61-7.5-.2-2.86-.46-5.73-.85-8.56-.58-4.1-1.47-8.15-2.3-12.21-.93-4.54-2.5-8.9-3.82-13.34a3.84,3.84,0,0,0-.25-.67c-1.07-2.15-1.75-4.46-2.74-6.64s-2.05-4.69-3.14-7c-.84-1.77-1.79-3.48-2.67-5.22-.78-1.53-1.49-3.08-2.39-4.55a23.71,23.71,0,0,1-2.43-4.12,5.32,5.32,0,0,0-.8-1.46c-1.78-2.36-3.25-4.94-5.14-7.21s-3.56-4.92-5.86-6.94a3.61,3.61,0,0,1-.33-.35,70.57,70.57,0,0,0-8.37-8c-.54-.47-1.06-1-1.63-1.4-2.36-1.78-4.75-3.5-7.09-5.3A9.4,9.4,0,0,0,239.63,22.23ZM171.1,58.62c-1.36,0-2.92-.11-4.47,0-2.42.21-4.82.61-7.23.89a61,61,0,0,0-6.71,1.12,120.21,120.21,0,0,0-11.83,3.88,33.32,33.32,0,0,0-3.72,1.64c-1.47.74-2.87,1.58-4.33,2.33a95.94,95.94,0,0,0-10.28,6.11,115.6,115.6,0,0,0-9.42,7.54c-.85.74-1.64,1.52-2.49,2.24a82.43,82.43,0,0,0-6.79,6.42c-2.24,2.39-4.4,4.85-6.61,7.26-1.48,1.62-3,3.18-4.5,4.81-.66.74-1.33,1.48-2,2.23-2,2.28-3.87,4.68-6,6.84-4,4.09-8,8.18-12.19,12.07-2.67,2.46-5.38,4.87-8.06,7.33-2.32,2.13-4.65,4.25-7.06,6.29-2.8,2.37-5.67,4.65-8.55,6.92A34.06,34.06,0,0,0,45.17,148a3.7,3.7,0,0,0-1,2.15,6.11,6.11,0,0,0,.62,3.49c1.37,2.83,2.45,3.32,5.67,2.61a19.21,19.21,0,0,0,5.4-2.54,23.91,23.91,0,0,0,3.49-2.3c1.46-1.23,2.87-2.53,4.43-3.64s2.61-2.34,4.07-3.34A5.59,5.59,0,0,0,69.51,143a10.81,10.81,0,0,1,2.24-2.14c2.4-2,4.8-4.05,7-6.3,2-2.07,4-4.27,6.14-6.2,1.58-1.4,2.9-3.07,4.48-4.49s2.89-3.19,4.57-4.56a4,4,0,0,0,.8-.89,8.72,8.72,0,0,1,1.9-2,10.71,10.71,0,0,0,2.23-2.33,7.6,7.6,0,0,1,1.77-1.93c1.27-.89,2-2.22,3.11-3.28,1.78-1.78,3.41-3.69,5.17-5.49.69-.71,1.43-1.37,2.08-2.13a9.48,9.48,0,0,1,1.15-1.37A31,31,0,0,0,116,96.07c.81-.9,1.83-1.54,2.66-2.42,1.81-1.92,4-3.46,5.94-5.18.6-.52,1.36-.85,2-1.34A67,67,0,0,1,134,82a70.31,70.31,0,0,1,11-5.47,7.62,7.62,0,0,0,1.45-.55,11.11,11.11,0,0,1,3.55-1.4c1.9-.45,3.82-.83,5.69-1.39,4.41-1.34,9-1.43,13.49-1.63a37.75,37.75,0,0,1,6.46.16c2.64.33,5.3.54,7.94,1a41.51,41.51,0,0,1,6.87,1.87c1.1.38,2.18.91,3.3,1.29.17.06.31.25.48.33a25.53,25.53,0,0,0,2.61,1.16A10.45,10.45,0,0,1,201,79.47a4.76,4.76,0,0,0,1.41.89,12.32,12.32,0,0,0,3.69.91c2,.19,3.24-.3,4-1.79a23.94,23.94,0,0,0,1.23-3.11,3.65,3.65,0,0,0-.41-3.2,14.05,14.05,0,0,0-3.06-3.33,38.49,38.49,0,0,0-9-5.65c-1.23-.56-2.51-1-3.77-1.52a47.22,47.22,0,0,0-5.62-2.05,66.81,66.81,0,0,0-10.71-1.75A42.44,42.44,0,0,0,171.1,58.62Zm57.72,52.48c-1.06,0-1.9-.09-2.62.52a5.33,5.33,0,0,0-2,3.94c-.13,2.67-.09,5.35-.21,8-.1,2.19-.26,4.38-.35,6.58-.08,1.9-.41,3.79-.67,5.68a58.26,58.26,0,0,1-1.13,6.81c-.57,2.16-1.34,4.25-2,6.38a63,63,0,0,1-2.14,6.1c-1.18,2.74-2.11,5.59-3.75,8.13a25.36,25.36,0,0,0-2.54,5,4.06,4.06,0,0,1-.61,1c-.78,1-1.43,2.11-2.15,3.16-1.9,2.8-3.92,5.52-6,8.23-2.3,3.06-5,5.81-7.46,8.72-1.69,2-3.62,3.72-5.31,5.69s-3.55,3.68-5.3,5.54c-3.12,3.31-6.4,6.48-9.56,9.76-2.25,2.32-4.52,4.62-6.9,6.82-2.23,2-4.45,4.12-6.67,6.18s-4.21,3.8-6.25,5.77c-2.32,2.25-4.79,4.35-7,6.71a12.84,12.84,0,0,0-1.9,2.46,3.71,3.71,0,0,0-.18,3.86,13.36,13.36,0,0,0,2.84,3.37,2.17,2.17,0,0,0,1,.45,6.5,6.5,0,0,0,5.1-1.15c3-1.87,5.47-4.38,8.14-6.65,1.69-1.45,3.24-3.06,4.95-4.51,2.76-2.36,5.39-4.87,8-7.43,1.94-1.94,4.07-3.7,5.84-5.82,1-1.19,2.22-2.18,3.32-3.26,2.32-2.26,4.41-4.71,6.65-7,1.74-1.8,3.17-3.9,4.93-5.69,0,0,0-.08.06-.1,1.28-1.43,2.42-3,3.78-4.32a19.44,19.44,0,0,0,1.67-1.73,67.31,67.31,0,0,1,5.24-6c2-2.06,3.43-4.59,5.41-6.65a7.12,7.12,0,0,0,1.25-1.74,3.14,3.14,0,0,1,.78-.9,11.76,11.76,0,0,0,2.65-3.22c.38-.66.81-1.28,1.25-1.9,1-1.39,2-2.77,2.88-4.25a104.42,104.42,0,0,0,5.84-10.43c1.09-2.48,2.3-4.9,3.23-7.45,1.13-3.09,1.92-6.27,2.78-9.41a60.57,60.57,0,0,0,1.84-10.82c.26-3.07.44-6.13.44-9.2a3.74,3.74,0,0,1,.08-1,5,5,0,0,0,.09-2.14,24.5,24.5,0,0,1-.19-4.19,11.44,11.44,0,0,0-.25-2.61,7,7,0,0,0-3.09-4.35A7.33,7.33,0,0,0,228.82,111.1ZM172.6,132.78a19.74,19.74,0,0,0-.12-2,7.53,7.53,0,0,0-.44-1.61,3.61,3.61,0,0,0-3.51-2.39,9.46,9.46,0,0,0-6.13,3.16c-1.54,1.67-2.93,3.48-4.45,5.16-2,2.19-3.86,4.47-5.92,6.6a26.89,26.89,0,0,0-2.47,2.76c-1.77,2.37-3.91,4.42-5.87,6.62-2.54,2.86-5.24,5.58-7.75,8.47-2.72,3.14-5.63,6.11-8.54,9.06-1.65,1.67-3.31,3.34-5.06,4.92-1.92,1.73-3.81,3.51-5.74,5.24-2.87,2.6-5.75,5.17-8.7,7.69-1.45,1.24-2.88,2.51-4.37,3.71-2.33,1.88-4.69,3.71-7,5.56-2.87,2.26-5.72,4.53-8.61,6.76-1.43,1.12-3,2.09-4.37,3.25-2.47,2-5.19,3.75-7.7,5.74-1.33,1.05-2.92,1.7-4.18,2.87a31.76,31.76,0,0,1-4.14,3.05,4.83,4.83,0,0,0-2.22,3.15,6.4,6.4,0,0,0,1.81,5.9,2.81,2.81,0,0,0,2.82.84,15.75,15.75,0,0,0,6.9-3.15,7.94,7.94,0,0,1,1.4-.9,15.14,15.14,0,0,0,3.24-2,9.8,9.8,0,0,1,2.06-1.42,9.73,9.73,0,0,0,2.28-1.54c1.93-1.73,4-3.25,6.12-4.79,1.69-1.25,3.4-2.49,5.08-3.76,1.9-1.43,3.93-2.71,5.75-4.27,1.24-1,2.58-2,3.85-3,1.78-1.47,3.54-3,5.32-4.44a96.2,96.2,0,0,0,7.43-6.39,48.92,48.92,0,0,1,4.91-4.19,82.43,82.43,0,0,0,7.83-7.35c.39-.39.71-.84,1.14-1.21a17.35,17.35,0,0,0,3.43-3.31,6.56,6.56,0,0,1,1.46-1.42,13,13,0,0,0,2.61-2.62,7.92,7.92,0,0,1,1.68-1.69,10,10,0,0,0,2.26-2.29,9.24,9.24,0,0,1,1.8-1.9,7.51,7.51,0,0,0,2.13-2.25,6.72,6.72,0,0,1,1.83-2,8.6,8.6,0,0,0,1.59-1.6,13,13,0,0,1,2.27-2.77,9.1,9.1,0,0,0,1.87-2c.24-.32.5-.61.74-.93.83-1.14,1.93-2,2.82-3.1,1.29-1.57,2.49-3.22,3.86-4.72,2.38-2.61,4.7-5.27,7-7.94A7.24,7.24,0,0,0,172.6,132.78Z"/><path class="b" d="M253,126v-5.52a68.66,68.66,0,0,0-.67-8.22,44.12,44.12,0,0,0-1-6.48c-.6-2.19-1.16-4.39-1.91-6.54s-1.42-4.49-2.11-6.74a31,31,0,0,0-2.09-5.1,68.24,68.24,0,0,0-3.36-6.74c-1.13-1.74-2.08-3.62-3.35-5.24-1.75-2.23-3.26-4.65-5.39-6.56-.65-.59-1.12-1.34-1.73-2-1.46-1.53-3.19-2.77-4.77-4.17-1.82-1.61-3.69-3.17-5.57-4.71-1.17-1-2.39-1.86-3.61-2.76a45.94,45.94,0,0,0-6.79-3.78c-1-.48-1.89-1-2.85-1.53a56.29,56.29,0,0,0-10.59-4.05c-2.15-.61-4.27-1.32-6.46-1.73-2.74-.52-5.46-1.13-8.24-1.42s-5.29-.62-7.95-.89c-.83-.09-1.68,0-2.51,0a90.19,90.19,0,0,0-13.14.68c-3.2.44-6.35,1.1-9.5,1.8a80.12,80.12,0,0,0-10.23,2.91,80.29,80.29,0,0,0-8.71,3.35c-1.93,1-4,1.64-5.88,2.66A39.65,39.65,0,0,0,121,55.27a11.48,11.48,0,0,1-1.93.94,31,31,0,0,0-6.47,4.07c-1.4,1.07-2.89,2-4.25,3.1-2.43,2-5.13,3.65-7.33,5.95-1.09,1.15-2.36,2.14-3.47,3.3-1.26,1.32-2.55,2.64-3.82,4a59.59,59.59,0,0,1-6.09,5.57,17.32,17.32,0,0,1-3.43,2.37,7.85,7.85,0,0,1-3,.75,2.86,2.86,0,0,1-2.73-1.59c-.41-.68-.82-1.37-1.17-2.09a5,5,0,0,1,.4-5.12,26.43,26.43,0,0,1,3.2-3.87c2.08-2.27,4.42-4.28,6.64-6.4,2.45-2.35,5-4.61,7.55-6.83,2-1.77,4.26-3.35,6.45-5,2.61-1.91,5.31-3.69,8-5.5a83.9,83.9,0,0,1,7.49-4.5,65.3,65.3,0,0,1,6.11-3,12.25,12.25,0,0,0,3.55-1.92,8.5,8.5,0,0,1,2-.9c1.88-.89,3.84-1.57,5.72-2.45a31.7,31.7,0,0,1,3.76-1.21c3.45-1.14,6.81-2.52,10.36-3.37a52.31,52.31,0,0,1,6.23-1.07c1.86-.22,3.72-.45,5.56-.8a35.09,35.09,0,0,1,3.68-.3,49.84,49.84,0,0,1,9-.27c2.74.24,5.48.38,8.22.62,3.66.32,7.28.83,10.88,1.48a22.21,22.21,0,0,1,3,.75c1,.32,2.11.5,3.09.91,1.65.69,3.41,1,5,1.76l.22.09c4.34,1.09,8.18,3.38,12.26,5.08a58.11,58.11,0,0,1,6.63,3.59,32.2,32.2,0,0,1,3.72,2.17c2.48,1.92,5.24,3.48,7.46,5.77a37.69,37.69,0,0,0,3.15,2.76c.59.49,1,1.16,1.52,1.68A57,57,0,0,1,244,62.84c1.71,2.26,3.36,4.56,4.89,6.94a79.15,79.15,0,0,1,4.57,7.86c2.25,4.54,4.52,9.08,6.43,13.78a34.38,34.38,0,0,1,1.44,4.18c.67,2.55,1.7,5,2.05,7.62s.84,5.1,1.14,7.68a152.28,152.28,0,0,1,.61,20.81c0,1.74-.16,3.5-.34,5.24s-.3,3.33-.54,5c-.45,3.24-1,6.46-1.66,9.65-.76,3.46-1.56,6.92-2.51,10.34a50.52,50.52,0,0,1-2.06,5.49c-.82,2-1.72,4-2.59,5.92-.39.88-.9,1.7-1.37,2.53-.68,1.22-1.25,2.5-1.86,3.75-1.7,3.49-3.8,6.75-5.7,10.12-.29.52-.73.95-1.07,1.44-.83,1.22-1.65,2.44-2.37,3.74a32.25,32.25,0,0,1-3.16,4.2,14.34,14.34,0,0,0-1.23,1.77,8.07,8.07,0,0,1-1.37,1.81,12.9,12.9,0,0,0-2.29,2.91,23.24,23.24,0,0,1-1.83,2.36c-2.32,3.14-4.8,6.15-7.25,9.2l-.07.09c-1.49,1.45-2.81,3.05-4.17,4.62a45.69,45.69,0,0,0-3.56,4,2.08,2.08,0,0,1-.41.43,18.53,18.53,0,0,0-3.51,3.73,3.61,3.61,0,0,1-.86.84,33.69,33.69,0,0,0-2.88,2.85c-2.08,2-4,4.21-6.21,6.11a11.14,11.14,0,0,0-1.61,1.61,13.06,13.06,0,0,1-3,2.89,6.27,6.27,0,0,0-1.27,1.25,10.92,10.92,0,0,1-2.2,2.2,12,12,0,0,0-2.29,2.26,6.52,6.52,0,0,1-1.42,1.45,18,18,0,0,0-2.9,2.81,18.44,18.44,0,0,1-2.35,2c-1.68,1.22-3.11,2.74-4.79,3.94s-3,3.05-4.88,4.17a1,1,0,0,0-.26.24,16.9,16.9,0,0,1-3.65,3.16c-1.08.83-1.87,2-3,2.69s-1.93,1.62-2.93,2.39a10.58,10.58,0,0,0-1.41,1.27,20.44,20.44,0,0,1-3.78,3.06c-1.74,1.15-3,2.86-4.88,3.8a1.63,1.63,0,0,0-.49.52,15.6,15.6,0,0,1-3.73,3.08,15.85,15.85,0,0,0-1.9,1.59c-1.1,1-2.51,1.52-3.67,2.44A31.2,31.2,0,0,1,144,291.4a7.64,7.64,0,0,1-5.16,1.07,5.05,5.05,0,0,1-2.73-2.05c-.39-.44-.66-1-1.05-1.45-1.4-1.65-.88-4.31.51-5.89a24.52,24.52,0,0,1,2.43-2.36,15.18,15.18,0,0,1,3.14-2.46,17.22,17.22,0,0,0,3-2.1c1.62-1.32,3.4-2.39,5.08-3.59,2.6-1.85,5.11-3.81,7.59-5.82s5-4.14,7.54-6.22c1.58-1.33,3-2.83,4.65-4.12,1.13-.89,2.12-1.92,3.19-2.87a53.13,53.13,0,0,0,5.45-5.16,11.71,11.71,0,0,1,3.16-2.91,4.24,4.24,0,0,0,1.14-1.06,82.31,82.31,0,0,1,7.35-7.71c1.36-1.28,2.73-2.56,4-4a35.64,35.64,0,0,1,2.61-2.45c.67-.63,1.12-1.46,1.84-2.05a76.72,76.72,0,0,0,5.93-5.76c2.39-2.4,4.79-4.8,7.06-7.31,1.61-1.78,3.35-3.42,5-5.18a133.72,133.72,0,0,0,11.69-14.21c1.37-2,2.82-3.86,4.26-5.77.58-.77.94-1.68,1.53-2.42,1.9-2.41,3-5.28,4.62-7.83a32,32,0,0,0,3-5.94,13.27,13.27,0,0,1,1.62-2.91,14.93,14.93,0,0,0,1.69-3.42c.9-2.39,2.15-4.63,3-7,.55-1.5,1-3,1.48-4.55a91,91,0,0,0,2.46-8.87c.6-2.84,1.11-5.7,1.43-8.6A114.66,114.66,0,0,0,253,126Z"/><path class="b" d="M193.92,126.12a37.76,37.76,0,0,0-.49-8.23,20.67,20.67,0,0,0-2.81-7.71,14.91,14.91,0,0,0-1.92-2.73,18.58,18.58,0,0,0-11.41-5.74,59.38,59.38,0,0,0-6.92-.43A38.45,38.45,0,0,0,156.23,104a69.28,69.28,0,0,0-6.89,3.32,40.58,40.58,0,0,0-5.55,4c-.54.42-1.13.74-1.67,1.15a59.63,59.63,0,0,0-7.31,6.35,13,13,0,0,1-1.86,1.68,3.14,3.14,0,0,0-.89,1,12,12,0,0,1-2.1,2.45,13.32,13.32,0,0,0-2.53,3,4.67,4.67,0,0,1-1.34,1.52,9.11,9.11,0,0,0-2.24,2.31,13.09,13.09,0,0,1-2.75,2.81,7.18,7.18,0,0,0-1.32,1.54,23.4,23.4,0,0,1-1.77,2c-2.2,2.2-4.3,4.5-6.45,6.77q-2.93,3.09-6,6.07c-2.48,2.43-5,4.89-7.62,7.1-2.25,1.86-4.3,3.92-6.54,5.79a54.45,54.45,0,0,0-5.92,5c-.58.64-1.4,1.05-2,1.64-2.4,2.17-5.07,4-7.56,6.05a83,83,0,0,1-7.82,5.91c-2.65,1.71-5.08,3.71-7.61,5.57a34.89,34.89,0,0,1-5.09,3.55,26,26,0,0,1-6,2.55c-2.29.48-3.36,0-4.37-2.05a5.68,5.68,0,0,1-.49-4.61,5.38,5.38,0,0,1,1.91-2.42c2.51-1.9,4.83-4,7.38-5.89,3.19-2.32,6.37-4.68,9.42-7.18,3.85-3.16,7.8-6.2,11.69-9.31,2-1.62,4-3.29,5.91-5.06,2.23-2.06,4.58-4,6.85-6,1.19-1.06,2.33-2.19,3.5-3.27,2.18-2,4.41-3.93,6.56-6a97.08,97.08,0,0,0,7.6-8.11c.11-.12.21-.24.33-.35,1.82-1.68,3.44-3.57,5.08-5.41,2.36-2.65,4.86-5.19,7-8A3.57,3.57,0,0,1,118,119c3.47-3.65,6.9-7.34,10.59-10.77a6.22,6.22,0,0,0,.64-.71,31.34,31.34,0,0,1,4.07-3.47c1.79-1.58,3.8-2.9,5.71-4.33a62.8,62.8,0,0,1,6.1-3.88A44.72,44.72,0,0,1,150.64,93a67.63,67.63,0,0,1,11.63-3.65c1-.2,2.06-.24,3.08-.36,1.71-.2,3.43-.09,5.13-.36a7.3,7.3,0,0,1,2.51,0c1.7.31,3.42.21,5.13.35a24.12,24.12,0,0,1,8,2.22,28.27,28.27,0,0,1,6.05,3.39,36.76,36.76,0,0,1,9.53,10.93,40.35,40.35,0,0,1,3.23,8,23.4,23.4,0,0,1,.74,4.35c.19,1.94.21,3.9.36,5.84a24.45,24.45,0,0,1-.09,5.86,7.72,7.72,0,0,0-.05,1,41.42,41.42,0,0,1-1.6,10.37c-.61,2.11-1.19,4.22-2,6.28a34.63,34.63,0,0,1-2.62,5.24,29,29,0,0,0-1.58,2.82,31.48,31.48,0,0,1-3.43,5.31,16.33,16.33,0,0,0-2.44,3.64,3.46,3.46,0,0,1-1.3,1.54,5.93,5.93,0,0,0-1.59,1.77,42.92,42.92,0,0,1-3.29,4.39q-1.59,2-3.37,3.84a58.9,58.9,0,0,0-4.68,4.93,19.89,19.89,0,0,1-1.8,2.08c-2.1,2.09-4,4.37-6.12,6.42a25.65,25.65,0,0,0-2.62,2.79,7.71,7.71,0,0,1-1.74,1.63A13.09,13.09,0,0,0,164,195.5c-3.64,3.66-7.26,7.33-11,10.92-.77.75-1.49,1.53-2.24,2.3-1.14,1.18-2.47,2.15-3.59,3.35a45.85,45.85,0,0,0-3.46,3.78,17.57,17.57,0,0,1-2.75,2.48c-2,1.81-4.1,3.55-6.19,5.28s-4.41,3.42-6.49,5.27c-1.74,1.53-3.68,2.79-5.36,4.39-1,1-2.25,1.65-3.32,2.56-1.75,1.5-3.56,2.95-5.44,4.29a75.53,75.53,0,0,1-6.23,4.43c-.83.48-1.38,1.32-2.18,1.87-2.22,1.49-4.45,3-6.58,4.57a25.5,25.5,0,0,1-5.08,2.63c-2.58,1.16-4.81.17-6.35-1.8a9.3,9.3,0,0,1-1.31-2.42,3.25,3.25,0,0,1,.76-3.44,31.23,31.23,0,0,1,4.42-4c3.74-2.85,7.58-5.58,11.41-8.31,1.62-1.16,3.12-2.48,4.71-3.69,1.13-.88,2.37-1.63,3.47-2.54,1.31-1.09,2.75-2,4.07-3a9.91,9.91,0,0,0,2.1-1.89,5.39,5.39,0,0,1,1.48-1.13c.81-.57,1.42-1.34,2.28-1.87a36.71,36.71,0,0,0,3.06-2.56c.71-.57,1.45-1.09,2.13-1.71.92-.85,2-1.59,2.85-2.47.68-.67,1.48-1.19,2.18-1.84,1.63-1.5,3.26-3,5-4.4s3.16-2.8,4.78-4.16c.33-.28.67-.56,1-.87,2-1.94,4-3.83,5.85-5.85,2.34-2.52,5.12-4.57,7.39-7.15a53.73,53.73,0,0,1,4.77-4.89c2-1.76,3.77-3.79,5.6-5.73,2.15-2.3,4.33-4.58,6.4-7,1.59-1.84,3.2-3.66,4.72-5.56,1-1.28,1.92-2.65,2.91-3.94,1.77-2.32,3.34-4.77,5-7.13a21.15,21.15,0,0,0,2.55-4.84,13.91,13.91,0,0,1,1.42-2.63,16.14,16.14,0,0,0,2-4.49,26.83,26.83,0,0,1,1-2.8,26.5,26.5,0,0,0,1.7-5.85A33.72,33.72,0,0,0,193.92,126.12Z"/><path class="b" d="M239.63,22.23a9.4,9.4,0,0,1,6.08,2c2.34,1.8,4.73,3.52,7.09,5.3.57.43,1.09.93,1.63,1.4a70.57,70.57,0,0,1,8.37,8,3.61,3.61,0,0,0,.33.35c2.3,2,3.93,4.61,5.86,6.94s3.36,4.85,5.14,7.21a5.32,5.32,0,0,1,.8,1.46A23.71,23.71,0,0,0,277.36,59c.9,1.47,1.61,3,2.39,4.55.88,1.74,1.83,3.45,2.67,5.22,1.09,2.3,2.09,4.66,3.14,7s1.67,4.49,2.74,6.64a3.84,3.84,0,0,1,.25.67c1.32,4.44,2.89,8.8,3.82,13.34.83,4.06,1.72,8.11,2.3,12.21.39,2.83.65,5.7.85,8.56.18,2.5.3,5,.61,7.5a4.09,4.09,0,0,1-.06,1.67,3.68,3.68,0,0,0-.12,1.19,34.17,34.17,0,0,1-.57,6.06c-.16,1.35-.15,2.7-.37,4.05-.38,2.39-.64,4.81-.92,7.22-.31,2.73-.79,5.44-1.31,8.14a34.73,34.73,0,0,1-1.73,6.45,34.36,34.36,0,0,0-1.08,3.92,57.59,57.59,0,0,1-2.84,8.87c-.82,1.81-1.29,3.78-2,5.65a40.69,40.69,0,0,1-2.27,5.41c-1.07,2-1.82,4.17-2.78,6.23-.41.88-.9,1.69-1.36,2.53-.81,1.47-1.42,3-2.22,4.52a55,55,0,0,1-2.77,4.9c-.72,1.07-1.08,2.3-1.71,3.4a13.85,13.85,0,0,1-1.45,2.19,25.63,25.63,0,0,0-2.55,3.9,27,27,0,0,1-3.12,4.38,23.47,23.47,0,0,0-1.5,2.44,4.5,4.5,0,0,1-.47.7c-1.44,1.29-2.35,3-3.59,4.47s-2.46,2.83-3.68,4.25c-1,1.2-2.09,2.41-3.16,3.59a9.87,9.87,0,0,1-4,2.7,2.45,2.45,0,0,1-3.17-.91,17.24,17.24,0,0,1-2.13-3.45,4.76,4.76,0,0,1,.14-3.5,12.35,12.35,0,0,1,2.31-3.89c2-2.46,4-4.9,5.92-7.36.55-.69,1-1.45,1.5-2.17,1.63-2.3,3.41-4.53,4.88-6.94,1.27-2.06,2.91-3.9,3.8-6.21a12.31,12.31,0,0,1,1.7-2.75,20.36,20.36,0,0,0,2.6-4.84,14.82,14.82,0,0,1,1.58-2.8,19.11,19.11,0,0,0,2.05-4.06c.67-1.85,1.56-3.58,2.38-5.35a20.77,20.77,0,0,0,1.44-3.8,25.53,25.53,0,0,1,1-2.68c.77-2.14,1.47-4.31,2.16-6.48.65-2,1.21-4.05,1.88-6.06a61,61,0,0,0,2.3-10.25c.42-2.76.83-5.52,1.47-8.23a45.24,45.24,0,0,0,1.19-8c.19-3.3.44-6.61.39-9.92a65.71,65.71,0,0,0-.63-9.29c-.17-1.1-.21-2.22-.44-3.32-.34-1.67-.74-3.34-1-5-.36-2.08-.63-4.18-1-6.26a49.67,49.67,0,0,0-1.36-6.18c-1-3.52-2.16-7-3.33-10.5-.75-2.27-1.86-4.41-2.79-6.61A47.5,47.5,0,0,0,269,68.6a5.13,5.13,0,0,1-.58-1.31,19.18,19.18,0,0,0-2.11-3.85,82.27,82.27,0,0,0-7-9.84,53.84,53.84,0,0,0-4.17-4.78c-.81-.77-1.5-1.66-2.28-2.45-1.94-1.95-4.07-3.71-6-5.68-3.25-3.32-7.32-5.67-10.47-9.11A5.9,5.9,0,0,1,234.72,28a16.74,16.74,0,0,1-.26-2.13,2.89,2.89,0,0,1,2.2-3.05A9.63,9.63,0,0,1,239.63,22.23Z"/><path class="b" d="M171.1,58.62a42.44,42.44,0,0,1,7.62.25,66.81,66.81,0,0,1,10.71,1.75,47.22,47.22,0,0,1,5.62,2.05c1.26.51,2.54,1,3.77,1.52a38.49,38.49,0,0,1,9,5.65,14.05,14.05,0,0,1,3.06,3.33,3.65,3.65,0,0,1,.41,3.2,23.94,23.94,0,0,1-1.23,3.11c-.73,1.49-2,2-4,1.79a12.32,12.32,0,0,1-3.69-.91,4.76,4.76,0,0,1-1.41-.89,10.45,10.45,0,0,0-4.09-2.14,25.53,25.53,0,0,1-2.61-1.16c-.17-.08-.31-.27-.48-.33-1.12-.38-2.2-.91-3.3-1.29a41.51,41.51,0,0,0-6.87-1.87c-2.64-.43-5.3-.64-7.94-1a37.75,37.75,0,0,0-6.46-.16c-4.53.2-9.08.29-13.49,1.63-1.87.56-3.79.94-5.69,1.39a11.11,11.11,0,0,0-3.55,1.4,7.62,7.62,0,0,1-1.45.55A70.31,70.31,0,0,0,134,82a67,67,0,0,0-7.48,5.14c-.63.49-1.39.82-2,1.34-2,1.72-4.13,3.26-5.94,5.18-.83.88-1.85,1.52-2.66,2.42a31,31,0,0,1-3.79,3.81,9.48,9.48,0,0,0-1.15,1.37c-.65.76-1.39,1.42-2.08,2.13-1.76,1.8-3.39,3.71-5.17,5.49-1.06,1.06-1.84,2.39-3.11,3.28a7.6,7.6,0,0,0-1.77,1.93,10.71,10.71,0,0,1-2.23,2.33,8.72,8.72,0,0,0-1.9,2,4,4,0,0,1-.8.89c-1.68,1.37-3,3.13-4.57,4.56s-2.9,3.09-4.48,4.49c-2.19,1.93-4.1,4.13-6.14,6.2-2.22,2.25-4.62,4.27-7,6.3A10.81,10.81,0,0,0,69.51,143a5.59,5.59,0,0,1-1.61,1.41c-1.46,1-2.64,2.32-4.07,3.34s-3,2.41-4.43,3.64a23.91,23.91,0,0,1-3.49,2.3,19.21,19.21,0,0,1-5.4,2.54c-3.22.71-4.3.22-5.67-2.61a6.11,6.11,0,0,1-.62-3.49,3.7,3.7,0,0,1,1-2.15,34.06,34.06,0,0,1,3.72-3.39c2.88-2.27,5.75-4.55,8.55-6.92,2.41-2,4.74-4.16,7.06-6.29,2.68-2.46,5.39-4.87,8.06-7.33,4.2-3.89,8.2-8,12.19-12.07,2.11-2.16,4-4.56,6-6.84.66-.75,1.33-1.49,2-2.23,1.47-1.63,3-3.19,4.5-4.81,2.21-2.41,4.37-4.87,6.61-7.26a82.43,82.43,0,0,1,6.79-6.42c.85-.72,1.64-1.5,2.49-2.24a115.6,115.6,0,0,1,9.42-7.54,95.94,95.94,0,0,1,10.28-6.11c1.46-.75,2.86-1.59,4.33-2.33a33.32,33.32,0,0,1,3.72-1.64,120.21,120.21,0,0,1,11.83-3.88,61,61,0,0,1,6.71-1.12c2.41-.28,4.81-.68,7.23-.89C168.18,58.51,169.74,58.62,171.1,58.62Z"/><path class="b" d="M228.82,111.1a7.33,7.33,0,0,1,3.78,1,7,7,0,0,1,3.09,4.35,11.44,11.44,0,0,1,.25,2.61,24.5,24.5,0,0,0,.19,4.19,5,5,0,0,1-.09,2.14,3.74,3.74,0,0,0-.08,1c0,3.07-.18,6.13-.44,9.2a60.57,60.57,0,0,1-1.84,10.82c-.86,3.14-1.65,6.32-2.78,9.41-.93,2.55-2.14,5-3.23,7.45a104.42,104.42,0,0,1-5.84,10.43c-.85,1.48-1.89,2.86-2.88,4.25-.44.62-.87,1.24-1.25,1.9a11.76,11.76,0,0,1-2.65,3.22,3.14,3.14,0,0,0-.78.9,7.12,7.12,0,0,1-1.25,1.74c-2,2.06-3.37,4.59-5.41,6.65a67.31,67.31,0,0,0-5.24,6,19.44,19.44,0,0,1-1.67,1.73c-1.36,1.35-2.5,2.89-3.78,4.32,0,0,0,.07-.06.1-1.76,1.79-3.19,3.89-4.93,5.69-2.24,2.32-4.33,4.77-6.65,7-1.1,1.08-2.32,2.07-3.32,3.26-1.77,2.12-3.9,3.88-5.84,5.82-2.57,2.56-5.2,5.07-8,7.43-1.71,1.45-3.26,3.06-4.95,4.51-2.67,2.27-5.16,4.78-8.14,6.65A6.5,6.5,0,0,1,150,246a2.17,2.17,0,0,1-1-.45,13.36,13.36,0,0,1-2.84-3.37,3.71,3.71,0,0,1,.18-3.86,12.84,12.84,0,0,1,1.9-2.46c2.22-2.36,4.69-4.46,7-6.71,2-2,4.17-3.84,6.25-5.77s4.44-4.13,6.67-6.18c2.38-2.2,4.65-4.5,6.9-6.82,3.16-3.28,6.44-6.45,9.56-9.76,1.75-1.86,3.63-3.61,5.3-5.54s3.62-3.71,5.31-5.69c2.48-2.91,5.16-5.66,7.46-8.72,2-2.71,4.06-5.43,6-8.23.72-1,1.37-2.15,2.15-3.16a4.06,4.06,0,0,0,.61-1,25.36,25.36,0,0,1,2.54-5c1.64-2.54,2.57-5.39,3.75-8.13a63,63,0,0,0,2.14-6.1c.66-2.13,1.43-4.22,2-6.38a58.26,58.26,0,0,0,1.13-6.81c.26-1.89.59-3.78.67-5.68.09-2.2.25-4.39.35-6.58.12-2.67.08-5.35.21-8a5.33,5.33,0,0,1,2-3.94C226.92,111,227.76,111.13,228.82,111.1Z"/><path class="b" d="M172.6,132.78a7.24,7.24,0,0,1-2,5.45c-2.32,2.67-4.64,5.33-7,7.94-1.37,1.5-2.57,3.15-3.86,4.72-.89,1.08-2,2-2.82,3.1-.24.32-.5.61-.74.93a9.1,9.1,0,0,1-1.87,2,13,13,0,0,0-2.27,2.77,8.6,8.6,0,0,1-1.59,1.6,6.72,6.72,0,0,0-1.83,2,7.51,7.51,0,0,1-2.13,2.25,9.24,9.24,0,0,0-1.8,1.9,10,10,0,0,1-2.26,2.29,7.92,7.92,0,0,0-1.68,1.69,13,13,0,0,1-2.61,2.62,6.56,6.56,0,0,0-1.46,1.42,17.35,17.35,0,0,1-3.43,3.31c-.43.37-.75.82-1.14,1.21a82.43,82.43,0,0,1-7.83,7.35,48.92,48.92,0,0,0-4.91,4.19,96.2,96.2,0,0,1-7.43,6.39c-1.78,1.46-3.54,3-5.32,4.44-1.27,1-2.61,2-3.85,3-1.82,1.56-3.85,2.84-5.75,4.27-1.68,1.27-3.39,2.51-5.08,3.76-2.09,1.54-4.19,3.06-6.12,4.79a9.73,9.73,0,0,1-2.28,1.54,9.8,9.8,0,0,0-2.06,1.42,15.14,15.14,0,0,1-3.24,2,7.94,7.94,0,0,0-1.4.9,15.75,15.75,0,0,1-6.9,3.15,2.81,2.81,0,0,1-2.82-.84,6.4,6.4,0,0,1-1.81-5.9,4.83,4.83,0,0,1,2.22-3.15,31.76,31.76,0,0,0,4.14-3.05c1.26-1.17,2.85-1.82,4.18-2.87,2.51-2,5.23-3.7,7.7-5.74,1.39-1.16,2.94-2.13,4.37-3.25,2.89-2.23,5.74-4.5,8.61-6.76,2.35-1.85,4.71-3.68,7-5.56,1.49-1.2,2.92-2.47,4.37-3.71,2.95-2.52,5.83-5.09,8.7-7.69,1.93-1.73,3.82-3.51,5.74-5.24,1.75-1.58,3.41-3.25,5.06-4.92,2.91-3,5.82-5.92,8.54-9.06,2.51-2.89,5.21-5.61,7.75-8.47,2-2.2,4.1-4.25,5.87-6.62a26.89,26.89,0,0,1,2.47-2.76c2.06-2.13,3.94-4.41,5.92-6.6,1.52-1.68,2.91-3.49,4.45-5.16a9.46,9.46,0,0,1,6.13-3.16,3.61,3.61,0,0,1,3.51,2.39,7.53,7.53,0,0,1,.44,1.61A19.74,19.74,0,0,1,172.6,132.78Z"/></svg>